<?xml version="1.0" encoding="UTF-8" standalone="no"?>
<!-- Created with Inkscape (http://www.inkscape.org/) -->

<svg
   xmlns:dc="http://purl.org/dc/elements/1.1/"
   xmlns:cc="http://creativecommons.org/ns#"
   xmlns:rdf="http://www.w3.org/1999/02/22-rdf-syntax-ns#"
   xmlns:svg="http://www.w3.org/2000/svg"
   xmlns="http://www.w3.org/2000/svg"
   xmlns:sodipodi="http://sodipodi.sourceforge.net/DTD/sodipodi-0.dtd"
   xmlns:inkscape="http://www.inkscape.org/namespaces/inkscape"
   width="210mm"
   height="297mm"
   viewBox="0 0 210 297"
   version="1.1"
   id="svg8"
   inkscape:version="0.92.3 (2405546, 2018-03-11)"
   sodipodi:docname="TicTacToe.svg">
  <defs
     id="defs2" />
  <sodipodi:namedview
     id="base"
     pagecolor="#ffffff"
     bordercolor="#666666"
     borderopacity="1.0"
     inkscape:pageopacity="0.0"
     inkscape:pageshadow="2"
     inkscape:zoom="0.35"
     inkscape:cx="-77.142857"
     inkscape:cy="560"
     inkscape:document-units="mm"
     inkscape:current-layer="layer1"
     showgrid="false"
     inkscape:window-width="1920"
     inkscape:window-height="1001"
     inkscape:window-x="-9"
     inkscape:window-y="-9"
     inkscape:window-maximized="1" />
  <metadata
     id="metadata5">
    <rdf:RDF>
      <cc:Work
         rdf:about="">
        <dc:format>image/svg+xml</dc:format>
        <dc:type
           rdf:resource="http://purl.org/dc/dcmitype/StillImage" />
        <dc:title></dc:title>
      </cc:Work>
    </rdf:RDF>
  </metadata>
  <g
     inkscape:label="Layer 1"
     inkscape:groupmode="layer"
     id="layer1">
    <g
       transform="matrix(1.3492099,0,0,1.3492099,34.59304,-1272.3553)"
       id="layer1-5"
       inkscape:label="Layer 1"
       style="fill:#445500"
       inkscape:export-xdpi="26.190001"
       inkscape:export-ydpi="26.190001">
      <g
         transform="translate(-154.28571,-9.9999997e-6)"
         id="g4852"
         style="fill:#445500">
        <path
           style="color:#000000;font-style:normal;font-variant:normal;font-weight:normal;font-stretch:normal;font-size:medium;line-height:normal;font-family:sans-serif;text-indent:0;text-align:start;text-decoration:none;text-decoration-line:none;text-decoration-style:solid;text-decoration-color:#000000;letter-spacing:normal;word-spacing:normal;text-transform:none;writing-mode:lr-tb;direction:ltr;baseline-shift:baseline;text-anchor:start;white-space:normal;clip-rule:nonzero;display:inline;overflow:visible;visibility:visible;opacity:0.55899999;isolation:auto;mix-blend-mode:normal;color-interpolation:sRGB;color-interpolation-filters:linearRGB;solid-color:#000000;solid-opacity:1;fill:#445500;fill-opacity:0.99607843;fill-rule:nonzero;stroke:#000000;stroke-width:0;stroke-linecap:round;stroke-linejoin:miter;stroke-miterlimit:4;stroke-dasharray:none;stroke-dashoffset:0;stroke-opacity:1;color-rendering:auto;image-rendering:auto;shape-rendering:auto;text-rendering:auto;enable-background:accumulate"
           d="m 204.28571,956.36214 c -25.33691,0 -46,20.6631 -46,45.99996 0,25.3369 20.66309,46.0001 46,46.0001 25.33692,0 46,-20.6632 46,-46.0001 0,-25.33686 -20.66308,-45.99996 -46,-45.99996 z m 0,2 c 24.25027,0 44,19.7497 44,43.99996 0,24.2503 -19.74973,44.0001 -44,44.0001 -24.25026,0 -44,-19.7498 -44,-44.0001 0,-24.25026 19.74974,-43.99996 44,-43.99996 z"
           id="path4846"
           inkscape:connector-curvature="0"
           sodipodi:nodetypes="ssssssssss" />
        <path
           inkscape:connector-curvature="0"
           style="opacity:1;fill:#445500;fill-opacity:1;stroke:none;stroke-width:20;stroke-linecap:round;stroke-miterlimit:4;stroke-dasharray:none;stroke-dashoffset:0;stroke-opacity:1"
           d="m 204.28571,962.36212 a 40,40 0 0 0 -40,39.99998 40,40 0 0 0 40,40.0001 40,40 0 0 0 40,-40.0001 40,40 0 0 0 -40,-39.99998 z m 0,20.24998 a 19.75083,19.75083 0 0 1 19.75196,19.75 19.75083,19.75083 0 0 1 -19.75196,19.75 19.75083,19.75083 0 0 1 -19.75,-19.75 19.75083,19.75083 0 0 1 19.75,-19.75 z"
           id="path4457" />
      </g>
    </g>
    <g
       transform="matrix(1.2624502,0,0,1.2624502,43.466779,-1045.5394)"
       id="layer1-3"
       inkscape:label="Layer 1"
       style="fill:#aa0000"
       inkscape:export-xdpi="26.559999"
       inkscape:export-ydpi="26.559999">
      <g
         id="g4840"
         style="fill:#aa0000">
        <path
           style="color:#000000;font-style:normal;font-variant:normal;font-weight:normal;font-stretch:normal;font-size:medium;line-height:normal;font-family:sans-serif;text-indent:0;text-align:start;text-decoration:none;text-decoration-line:none;text-decoration-style:solid;text-decoration-color:#000000;letter-spacing:normal;word-spacing:normal;text-transform:none;writing-mode:lr-tb;direction:ltr;baseline-shift:baseline;text-anchor:start;white-space:normal;clip-rule:nonzero;display:inline;overflow:visible;visibility:visible;opacity:0.55899999;isolation:auto;mix-blend-mode:normal;color-interpolation:sRGB;color-interpolation-filters:linearRGB;solid-color:#000000;solid-opacity:1;fill:#aa0000;fill-opacity:1;fill-rule:nonzero;stroke:none;stroke-width:2;stroke-linecap:round;stroke-linejoin:miter;stroke-miterlimit:4;stroke-dasharray:none;stroke-dashoffset:0;stroke-opacity:1;color-rendering:auto;image-rendering:auto;shape-rendering:auto;text-rendering:auto;enable-background:accumulate"
           d="m 25.484375,953.87779 -0.707031,0.70703 -3.535156,3.53515 -19.726563,19.72461 24.515625,24.51762 -24.515625,24.5156 23.96875,23.9687 L 50,1026.3309 74.515625,1050.8465 98.484375,1026.8778 73.96875,1002.3622 98.484375,977.84458 74.515625,953.87779 50,978.39341 Z m 0,2.82812 L 50,981.22154 74.515625,956.70591 95.65625,977.84458 71.140625,1002.3622 95.65625,1026.8778 74.515625,1048.0184 50,1023.5028 25.484375,1048.0184 4.34375,1026.8778 28.859375,1002.3622 4.34375,977.84458 22.65625,959.53404 Z"
           id="path4185"
           inkscape:connector-curvature="0" />
        <path
           id="path4816"
           d="M 25.48438,962.36216 10,977.84456 34.51563,1002.3622 10,1026.8778 25.48438,1042.3622 50,1017.8465 74.51563,1042.3622 90,1026.8778 65.48438,1002.3622 90,977.84456 74.51563,962.36216 50,986.87776 Z"
           style="opacity:1;fill:#aa0000;fill-opacity:1;stroke:none;stroke-width:20;stroke-linecap:round;stroke-miterlimit:4;stroke-dasharray:none;stroke-dashoffset:0;stroke-opacity:1"
           inkscape:connector-curvature="0" />
      </g>
    </g>
  </g>
</svg>
